# xmcd CD database file
#
# Track frame offsets:
#	150
#	15805
#	31937
#
# Disc length: 632 seconds
#
# Revision: 0
# Processed by: cddbd v1.5.1PL0 Copyright (c) Steve Scherf et al.
# Submitted via: CDex 1.51
#
DISCID=10027603
DTITLE=CLOUD - voice 遊戯王OP
DYEAR=2000
DGENRE=JPop
TTITLE0=voice
TTITLE1=時計
TTITLE2=voice 〜カラオケver.〜
EXTD=YEAR: 2000
EXTT0=
EXTT1=
EXTT2=
PLAYORDER=
